<svg xmlns="http://www.w3.org/2000/svg" width="192.73701mm" height="171.85126mm" viewBox="0 0 192.73701 171.85126"><path d="M0 0c-14.449 21.502-37.824 35.48-64.222 35.48-26.417 0-49.79-13.978-64.241-35.48l64.241-77.66z" style="fill:#000;fill-opacity:1;fill-rule:nonzero;stroke:none" transform="matrix(1.3909 0 0 -1.3909 185.708 54.99)"/><path d="m0 0 59.15-71.505L118.282 0c-14.257 19.604-36.15 31.219-59.132 31.219C36.157 31.219 14.259 19.604 0 0m59.15-84.226L-10.144-.458l1.688 2.513C7.231 25.393 32.504 39.328 59.15 39.328c26.634 0 51.902-13.935 67.586-37.273l1.69-2.513z" style="fill:#c4c5cb;fill-opacity:1;fill-rule:nonzero;stroke:none" transform="matrix(1.3909 0 0 -1.3909 14.11 54.701)"/><path d="M0 0c-14.428 21.494-37.801 35.473-64.205 35.473-26.386 0-49.784-13.979-64.21-35.473l64.21-77.659z" style="fill:#bb0050;fill-opacity:1;fill-rule:nonzero;stroke:none" transform="matrix(1.3909 0 0 -1.3909 184.603 54.678)"/><path d="M0 0c-10.776 16.068-28.239 26.5-47.957 26.5-19.716 0-37.181-10.432-47.969-26.5l47.969-58.006z" style="fill:#000;fill-opacity:1;fill-rule:nonzero;stroke:none" transform="matrix(1.3909 0 0 -1.3909 162.004 69.49)"/><path d="M0 0c.242.917 1.969 2.438 6.963 2.413h.049c.633.025 2.282 0 3.503-.681l1.103-.606.425 1.2c.427 1.233.97 2.388 1.344 3.132l1.057 2.083-1.756-.446-.511-.121c-1.158-.314-2.413-.419-3.718-.402C.525 6.833-4.438 4.675-6.266.153c-.046-.153-.306-.841-.306-1.695 0-.681.158-1.311.49-1.858.721-1.217 2.141-1.726 4.038-2.148.02 0 2.044-.374 2.044-.374 1.657-.261 5.103-.823 5.682-1.542l.025-.025.039-.052c.242-.261.381-.578.381-.918 0-.91-.992-1.874-2.421-2.324-.719-.267-1.304-.381-1.304-.381-.223-.032-.853-.173-2.707-.58-2.867-.535-10.31-1.206-11.782-1.339-12.265-1.094-27.27-2.921-45.581-8.195-.834-.243-20.658-5.489-26.525-9.031l-2.229-1.343 2.592-.172c.096-.019 8.126-.166 13.158-2.349l.49-.232.375.382c.147.117 14.16 11.67 52.331 16.961l.13.007c12.621 1.349 14.474 1.559 14.767 1.591l.141.021 2.733.292c1.362.158 2.509.351 3.457.54.019 0 1.418.338 1.418.338 3.397.898 5.345 2.033 6.251 3.6 1.331 2.165.871 4.451.66 4.947l.014-.031c-.133.437-.191.523-.395.89l-.038.039c-.999 1.783-4.127 2.381-6.98 2.751l-.93.102.051-.017C1.376-1.7.091-1.172-.064-.425-.088-.268 0 0 0 0" style="fill:#000;fill-opacity:1;fill-rule:nonzero;stroke:none" transform="matrix(1.3909 0 0 -1.3909 159.291 81.209)"/><path d="m0 0 .215 1.255-1.216-.183L-7.93.163l.313-1.066c.025-.102.076-.255.076-.306 0-.357-.082-.706-.248-1.095-.783-1.785-4.248-9.948-5.605-13.241l-1.873 12.794c0 .274 0 .219.052.464l.738 1.472-8.476-1.228 1.256-1.401c.209-.159.259-.28.278-.394l.052-.083c.171-.477.859-4.288 2.304-13.502.026-.212.198-1.199.198-2.432 0-.485-.05-1.448-.311-2.459l-.363-1.355 1.375.348c2.432.641 7.101 1.77 8.686 2.159l.784.19-.178.784a1.201 1.201 0 0 0-.052.383c0 .375.102.801.269 1.253.542 1.428 3.03 7.3 4.451 10.637.712-3.172 1.598-7.349 1.649-7.713 0-.087.072-.878.09-.961 0-.483-.102-1.095-.28-1.798l-.345-1.299 10.357 2.161-.3.995-.071.221V-16.238c-.026.114.02.287.071.382v.05c.236.772 2.324 6.427 5.573 15.139l.089.268c.007.012.31.807.903 1.712l.976 1.44-1.727-.16-4.819-.465-1.021-.107.375-1.146s.034-.097.053-.116C7.35.506 7.285.282 7.228.187c-.554-1.301-3.425-8.72-4.732-12.611L.025-.399C0-.222 0 0 0 0" style="fill:#000;fill-opacity:1;fill-rule:nonzero;stroke:none" transform="matrix(1.3909 0 0 -1.3909 80.428 78.146)"/><path d="M0 0c-.196-1.058-4.291-12.974-4.699-14.112 0-.032-.471-1.338-1.331-2.696l-.982-1.546 8.772 1.437-.571 1.034a2.478 2.478 0 0 0-.354 1.33c0 .409.063.72.253 1.374v.035l.021.024c.025.09 3.954 11.488 3.954 11.541.333.801.58 1.28 1.257 2.107l1.284 1.498-1.961-.141-5.973-.433S.02.304.02.272C.02.178.02.044 0 0" style="fill:#000;fill-opacity:1;fill-rule:nonzero;stroke:none" transform="matrix(1.3909 0 0 -1.3909 106.293 75.877)"/><path d="M0 0c-.07-.394-.631-2.566-4.6-13.915-.017-.057-.309-.854-.98-1.795l-1.006-1.519 8.139 1.046-.399.995c-.109.348-.173.662-.173.957 0 .087.043.468.064.68.49 2.26 2.018 6.558 2.744 8.545 2.006-3.515 4.127-7.249 4.311-7.533.045-.109.356-.854.356-1.707 0-.088-.139-1.235-.139-1.235l1.013.082 6.898.52-.53 1.116c-.229.426-.325.784-.325 1.186 0 .361.09.783.205 1.216.885 2.801 2.547 7.763 3.217 9.768l.057.141.011.063c.021 0 .262 1.034 1.229 2.089l1.261 1.413-1.876-.036-6.173-.058.542-1.165c.127-.28.171-.521.19-.747a9.306 9.306 0 0 1-.063-.596c-.496-1.912-1.785-5.913-2.434-7.886L7.112-1.399c-.133.207-.571.934-.571 1.827 0 .107.23 1.386.23 1.386l-1.035-.031-6.226-.3.363-1.15A3.82 3.82 0 0 0 0 0" style="fill:#000;fill-opacity:1;fill-rule:nonzero;stroke:none" transform="matrix(1.3909 0 0 -1.3909 121.77 74.885)"/><path d="M0 0c-2.051-.107-4.795 1.337-4.795 1.337-1.311.706-2.007 1.936-2.007 3.554v.172c.031.37.122.957.358 1.465.51.987 1.331 1.909 2.452 2.751l.006.012.013.02c3.037 2.631 8.125 4.268 15.061 4.871 0 0 .299.039.683.064-.039-.025-.07-.166-.07-.166C8.553 4.183 2.719-13.408-.992-20.004l-1.047-1.881 13.102 4.484-.381.814a3.995 3.995 0 0 0-.377 1.684c0 .853.204 1.821.574 2.884 0 0 7.832 22.825 9.15 26.602h.078c5.348.142 10.381.244 14.24 1.74 2.076.751 3.68 1.676 4.732 2.789 1.177 1.139 1.763 2.331 1.763 3.515 0 1.005-.459 1.999-1.33 2.973-.631.783-1.732 1.466-3.256 1.938l-1.828.591.822-1.707c.174-.419.307-.783.377-1.139 0-.109.032-.374.032-.428 0-1.223-.448-3.412-3.229-4.366h-.02c-1.185-.447-2.381-.664-3.203-.773-2.592-.477-6.006-.657-10.197-.521-.681.068-16.94 1.776-25.867-3.505-6.707-3.96-7.23-8.309-6.926-10.556.086-.613.587-3.753 3.429-5.122l-.052.039c.797-.453 3.045-1.465 7.082-.942C-1.503-.757 0 0 0 0" style="fill:#000;fill-opacity:1;fill-rule:nonzero;stroke:none" transform="matrix(1.3909 0 0 -1.3909 21.095 91.262)"/><path d="M0 0c-1.034 1.78-4.11 2.393-6.999 2.744l-.906.121h.031c-2.399.275-3.699.783-3.846 1.54-.031.248.039.435.039.435.261.903 1.994 2.425 6.993 2.393h.039c.641.032 2.279.013 3.496-.676l1.095-.618.419 1.205c.453 1.24.993 2.383 1.357 3.135l1.045 2.089-1.738-.448-.517-.107a12.864 12.864 0 0 0-3.712-.396c-7.955.241-12.903-1.917-14.731-6.45-.064-.134-.312-.815-.312-1.669 0-.695.184-1.306.489-1.86.734-1.224 2.141-1.745 4.064-2.158.007 0 2.013-.37 2.013-.37 1.669-.262 5.094-.815 5.688-1.528l.039-.052.031-.039c.26-.261.382-.573.382-.922 0-.922-.987-1.862-2.408-2.314-.376-.151-1.466-.419-1.466-.419-.293-.051-.72-.152-2.564-.553-2.855-.536-10.305-1.205-11.766-1.326-12.271-1.095-27.256-2.943-45.604-8.215-.822-.218-20.029-5.533-26.513-9.018 0 0-1.256-.61-2.522-1.409 0 0 2.451-.107 2.892-.119.099 0 8.526-.038 13.54-2.231l.49-.228.395.382c.133.126 13.742 11.578 51.942 16.851l.134.02c12.591 1.337 14.438 1.546 14.732 1.573l.17.012 2.739.292c1.338.172 2.503.366 3.445.555l1.427.33c3.356.893 5.337 2.039 6.227 3.606C1.094-3.682.604-1.384.413-.9.381-.688 0 0 0 0" style="fill:#b0afb5;fill-opacity:1;fill-rule:nonzero;stroke:none" transform="matrix(1.3909 0 0 -1.3909 173.75 86.168)"/><path d="M0 0c.038-.107.069-.246.069-.316 0-.331-.101-.703-.261-1.078-.784-1.802-4.215-9.968-5.757-13.597-.917 6.127-1.812 12.293-1.845 12.814 0 .17.065.523.191.783l.737 1.459-8.643-1.479 1.467-1.145c.171-.139.209-.28.241-.375l.046-.097c.183-.476.879-4.29 2.285-13.487.039-.211.211-1.204.211-2.441 0-.471-.034-1.444-.281-2.462l-.363-1.345 1.338.342c2.439.632 7.121 1.771 8.705 2.16l.783.185-.17.79c-.02.088-.059.217-.059.382 0 .375.11.801.282 1.248.541 1.433 3.011 7.299 4.438 10.647.694-3.19 1.566-7.367 1.661-7.719 0-.08.053-.885.071-.96a8.226 8.226 0 0 0-.286-1.803l-.35-1.3 10.362 2.167-.3.994-.09.229V-15.333c0 .102.058.272.09.381v.005l.02.039c.261.751 2.325 6.414 5.566 15.151l.089.224c.018.039.311.854.924 1.746l.973 1.45-1.732-.165-4.828-.492-1.012-.08.355-1.155s.064-.103.064-.12c0-.243-.106-.471-.138-.573-.575-1.3-3.42-8.718-4.963-12.756A2277.07 2277.07 0 0 0 7.572-.725c-.024.063-.151 1-.173 1.065v.056c0 .071.053.249.092.37l.336 1.377-1.211-.168-6.888-.917Z" style="fill:#b0afb5;fill-opacity:1;fill-rule:nonzero;stroke:none" transform="matrix(1.3909 0 0 -1.3909 68.061 77.632)"/><path d="M0 0c-.215-1.032-4.311-12.954-4.705-14.093 0-.027-.451-1.321-1.326-2.695l-.991-1.547 8.776 1.439-.563 1.012c-.21.358-.347.752-.347 1.346 0 .406.056.729.228 1.393l.018.013v.027c.014.094 3.949 11.48 3.969 11.534.349.826.553 1.284 1.266 2.113l1.257 1.496-1.951-.126-5.967-.429S.008.318.008.294C.008.204 0 .065 0 0" style="fill:#b0afb5;fill-opacity:1;fill-rule:nonzero;stroke:none" transform="matrix(1.3909 0 0 -1.3909 104.538 74.14)"/><path d="M0 0c-.05-.394-.604-2.559-4.565-13.908-.038-.071-.352-.854-.988-1.802l-1.012-1.504 8.131 1.034-.368.988a2.39 2.39 0 0 0-.205.953c0 .109.052.479.052.708.511 2.233 2.03 6.552 2.771 8.532 2.001-3.514 4.126-7.252 4.318-7.552.033-.078.332-.835.356-1.708-.024-.055-.151-1.232-.151-1.232l1.012.095 6.908.54-.555 1.089c-.176.433-.297.8-.297 1.204 0 .363.069.763.217 1.209.853 2.79 2.516 7.75 3.196 9.771l.052.119.019.07S19.165-.331 20.125.71l1.261 1.406-1.889-.027-6.18-.075.542-1.16c.14-.278.199-.521.199-.725-.008-.107-.059-.547-.085-.618-.47-1.909-1.771-5.891-2.406-7.89-1.275 2.011-4.434 6.985-4.434 6.985-.134.217-.561.929-.579 1.822.018.117.236 1.401.236 1.401l-1.026-.037-6.241-.294.374-1.185C-.05.199 0 .092 0 0" style="fill:#b0afb5;fill-opacity:1;fill-rule:nonzero;stroke:none" transform="matrix(1.3909 0 0 -1.3909 119.97 73.133)"/><path d="M0 0c-2.046-.095-4.814 1.346-4.814 1.346-1.288.699-2.007 1.943-2.007 3.558v.167c.038.377.126.949.37 1.47.489.987 1.322 1.904 2.436 2.753l.023.019v.018c3.043 2.607 8.123 4.244 15.086 4.871 0 0 .301.022.655.054-.038-.032-.076-.158-.076-.158C8.551 4.191 2.699-13.404-.981-19.984l-1.065-1.897 13.087 4.51-.381.803a4.268 4.268 0 0 0-.349 1.672c0 .849.191 1.822.541 2.885 0 0 7.851 22.827 9.158 26.617h.082c5.363.107 10.414.241 14.221 1.756 2.11.715 3.701 1.649 4.744 2.766 1.191 1.153 1.771 2.323 1.771 3.502 0 1.005-.451 2.019-1.324 2.999-.629.791-1.738 1.44-3.274 1.944l-1.79.572.796-1.713a4.28 4.28 0 0 0 .37-1.138c.011-.109.034-.385.034-.423 0-1.222-.429-3.42-3.226-4.389h-.01a14.255 14.255 0 0 0-3.198-.744c-2.598-.491-6.03-.664-10.188-.523-.69.071-16.938 1.764-25.897-3.514-6.687-3.968-7.211-8.306-6.918-10.547.065-.611.593-3.762 3.427-5.12l-.036.02c.769-.449 3.045-1.452 7.062-.925C-1.523-.729 0 0 0 0" style="fill:#b0afb5;fill-opacity:1;fill-rule:nonzero;stroke:none" transform="matrix(1.3909 0 0 -1.3909 19.343 89.52)"/><path d="m0 0-.471-.134a14.192 14.192 0 0 0-3.918-.389c-7.622.244-12.367-1.783-14.098-6.025-.032-.119-.242-.705-.242-1.425 0-.567.139-1.077.414-1.527.56-.995 1.84-1.448 3.584-1.832l1.994-.367c2.158-.331 5.357-.873 6.101-1.783.413-.407.612-.878.612-1.401 0-1.256-1.159-2.428-2.918-2.968l-1.317-.393c-.021 0-.236-.055-2.74-.587-2.897-.542-10.386-1.224-11.856-1.364-12.222-1.095-27.208-2.912-45.449-8.178-.23-.051-20.601-5.463-26.39-8.945l-.448-.29h.543c.076 0 8.642-.064 13.723-2.291l.109-.033.07.069c.12.117 13.821 11.702 52.305 17.023 1.268.142 14.916 1.602 14.916 1.621h.141c.018 0 2.751.299 2.751.299 1.285.152 2.433.343 3.376.527l1.381.338c3.16.835 5.025 1.873 5.841 3.275.631 1.051.806 2.149.806 2.987 0 .688-.101 1.189-.175 1.373l-.357.772c-.9 1.585-3.981 2.148-6.543 2.459l-.878.095c-3.604.426-4.293 1.357-4.438 2.121-.077.311.082.686.082.686.122.506 1.129 2.97 7.636 2.938.714.032 2.491 0 3.867-.759l.382-.243.178.442c.44 1.285.998 2.462 1.388 3.221l.383.771z" style="fill:#fff;fill-opacity:1;fill-rule:nonzero;stroke:none" transform="matrix(1.3909 0 0 -1.3909 175.37 70.49)"/><path d="m0 0-5.018-.484.108-.35.07-.314c0-.362-.088-.706-.178-.852-.657-1.573-4.834-12.495-5.752-14.866-.209.94-2.807 13.21-2.807 13.21l-.165 1.114v.122l.094.543.102.398-.218-.017-6.132-.837.072-.292.101-.508c0-.44-.101-.885-.327-1.376-.999-2.28-6.438-15.152-6.494-15.278 0 0-.085-.251-.212-.491-.023.262-.07.539-.07.539-.586 3.963-2.126 14.364-2.126 14.726 0 .282.091.752.28 1.097l.121.28-5.828-1.007.275-.212c.318-.26.414-.533.472-.681.421-1.075 1.898-10.756 2.374-13.718.039-.19.204-1.221.204-2.522 0-.521-.05-1.545-.331-2.61l-.062-.261 9.08 2.236-.082.688c0 .453.113.961.311 1.488.687 1.803 4.413 10.574 5.306 12.624.744-3.597 2.062-9.707 2.078-9.846l.094-1.05c0-.535-.094-1.197-.293-1.98l-.07-.238 8.565 1.805-.095.259-.095.441V-18.118c0 .28.095.571.12.571.235.783 2.166 6.049 5.587 15.197.049.159.063.229.087.28l.014-.019s.319.873.974 1.865l.198.248zm-6.949-18.245.021-.014-.021.039z" style="fill:#fff;fill-opacity:1;fill-rule:nonzero;stroke:none" transform="matrix(1.3909 0 0 -1.3909 96.54 73.715)"/><path d="m0 0-5.122-.365.085-.299.049-.273-.017-.401C-5.218-2.35-9.707-15.419-9.739-15.56c-.02 0-.49-1.357-1.419-2.821l-.148-.28 6.338 1.044-.092.189c-.24.404-.457.907-.457 1.659 0 .469.059.872.273 1.567.015.031 4.001 11.634 4.001 11.634.364.873.605 1.42 1.369 2.325l.229.26z" style="fill:#fff;fill-opacity:1;fill-rule:nonzero;stroke:none" transform="matrix(1.3909 0 0 -1.3909 112.434 72.43)"/><path d="m0 0-5.145-.049.108-.211c.173-.389.244-.732.244-1.051l-.071-.708c-.561-2.259-2.279-7.43-2.769-8.958 0-.039-.06-.211-.123-.358-.332.494-5.197 8.17-5.197 8.17-.165.249-.688 1.146-.688 2.217l.11.479.031.177-5.566-.263.107-.308.115-.545c0-.431-.802-3.235-4.592-14.15 0 0-.357-.873-1.044-1.935l-.208-.276 5.826.733-.07.192c-.172.452-.261.862-.261 1.236l.089.814c.642 3.043 3.133 9.611 3.157 9.681 0 0 .066.154.115.304.09-.15 5.051-8.838 5.051-8.838.006-.032.431-.973.431-2.027-.017 0-.025-.292-.025-.292l-.037-.184 6.141.476-.123.193c-.248.535-.399 1.019-.399 1.509 0 .434.102.91.261 1.407.815 2.644 2.349 7.275 3.181 9.783l.071.114c.02.034.332 1.223 1.396 2.427L.357 0Z" style="fill:#fff;fill-opacity:1;fill-rule:nonzero;stroke:none" transform="matrix(1.3909 0 0 -1.3909 147.102 71.174)"/><path d="M0 0c.229-.465.355-.897.426-1.338l.031-.503c0-1.115-.352-3.863-3.675-5.018-1.223-.445-2.491-.677-3.35-.784-2.586-.496-6.082-.676-10.311-.535-.144.02-16.598 1.849-25.494-3.407-6.368-3.775-6.879-7.828-6.604-9.89.071-.555.528-3.381 3.062-4.59.709-.423 2.805-1.345 6.632-.854l.037.292-.993.351c-.159.07-.254.094-.3.119v.021c-.151.049-.197.071-.261.08h.039l-.212.11c-1.503.808-2.349 2.279-2.349 4.138v.204c.039.459.117 1.128.408 1.734.548 1.058 1.42 2.07 2.637 2.995 3.171 2.711 8.394 4.397 15.458 5.044 0 0 1.17.088 1.653.134-.087-.306-.355-1.116-.355-1.116-3.178-9.944-8.999-27.585-12.711-34.221l-.204-.33 10.711 3.668-.058.155c-.299.596-.406 1.245-.406 1.934 0 .924.158 1.967.586 3.108 0 0 8.685 25.309 9.277 27.055.16 0 .574.012.574.012 5.278.121 10.255.229 13.998 1.688 1.994.701 3.518 1.586 4.51 2.624 1.019 1.019 1.541 2.044 1.541 3.038 0 .864-.375 1.701-1.154 2.571C2.578-.83 1.615-.236.176.204l-.332.109zm-3.098-7.134v-.005z" style="fill:#fff;fill-opacity:1;fill-rule:nonzero;stroke:none" transform="matrix(1.3909 0 0 -1.3909 69.198 52.367)"/><path d="m0 0 .624-.623-2.73-3.295-5.065 5.001.734.854 4.413-4.357z" style="fill:#fff;fill-opacity:1;fill-rule:nonzero;stroke:none" transform="matrix(1.3909 0 0 -1.3909 29.279 55.22)"/><path d="M0 0a6.488 6.488 0 0 0-.547-1.089 8.39 8.39 0 0 0-.896-1.09c-.805-.81-1.605-1.18-2.395-1.078-.791.102-1.557.601-2.357 1.518-.823.948-1.224 1.858-1.185 2.751.025.878.433 1.7 1.165 2.469.362.357.74.625 1.134.814.413.181.815.244 1.243.161l-.096-.949a1.972 1.972 0 0 1-.836-.114c-.279-.095-.572-.282-.853-.574-.555-.562-.783-1.151-.731-1.783.064-.637.42-1.326 1.024-2.031.58-.671 1.154-1.046 1.707-1.128.543-.083 1.084.141 1.605.676.223.229.414.452.575.666.119.156.207.302.278.448L-2.42 1.114l-1.139-1.16-.574.669 1.906 1.956z" style="fill:#fff;fill-opacity:1;fill-rule:nonzero;stroke:none" transform="matrix(1.3909 0 0 -1.3909 35.648 49.742)"/><path d="m0 0 .547-.742-1.624-1.411 3.712-5.064-.854-.712-3.711 5.061-1.631-1.418-.548.737Z" style="fill:#fff;fill-opacity:1;fill-rule:nonzero;stroke:none" transform="matrix(1.3909 0 0 -1.3909 38.734 34.596)"/><path d="m0 0 1.954-7.355-1.362-.878-4.19 4.84-.09-.046 1.987-6.266-1.414-.885-5.071 5.343 1.014.662 4.299-4.789.09.044-1.98 6.275 1.408.903L.814-7.024l.059.051L-.975-.625z" style="fill:#fff;fill-opacity:1;fill-rule:nonzero;stroke:none" transform="matrix(1.3909 0 0 -1.3909 51.187 26.466)"/><path d="m0 0 .993.448 2.675-6.816-1.019-.452Z" style="fill:#fff;fill-opacity:1;fill-rule:nonzero;stroke:none" transform="matrix(1.3909 0 0 -1.3909 53.003 25.705)"/><path d="m0 0 2.49-6.905-1.739-.74-4.731 4.962-.084-.051 2.185-6.025-1.018-.413-2.492 6.885 1.752.757 4.733-4.962.088.032L-1.02-.428z" style="fill:#fff;fill-opacity:1;fill-rule:nonzero;stroke:none" transform="matrix(1.3909 0 0 -1.3909 64.023 20.715)"/><path d="M0 0c-.301.07-.633.102-1.02.126A6.718 6.718 0 0 0-2.076.26a2.62 2.62 0 0 0-1.008.406c-.26.2-.432.55-.56 1.051a1.716 1.716 0 0 0-.05.868c.05.273.178.533.332.769.165.231.38.421.667.593.26.18.592.324.988.441.33.107.687.189 1.074.201.371.039.729.022 1.045-.068l-.139-.956c-.204.052-.477.071-.795.071-.3 0-.643-.032-.964-.148-.462-.134-.784-.331-.973-.572-.191-.248-.236-.511-.165-.815.063-.224.165-.394.323-.503.166-.119.353-.19.555-.222.154-.039.282-.058.453-.065.178-.027.332-.032.51-.059.172-.017.355-.031.521-.056.172-.012.338-.05.523-.082.151-.039.338-.083.464-.141a1.74 1.74 0 0 0 .466-.236 1.68 1.68 0 0 0 .375-.426c.083-.165.18-.382.243-.635.088-.333.101-.625.049-.907a1.716 1.716 0 0 0-.35-.759c-.151-.24-.381-.45-.655-.635a4.067 4.067 0 0 0-.988-.433 5.174 5.174 0 0 0-1.158-.216 3.38 3.38 0 0 0-1.152.09l.165.973c.342-.083.643-.095.956-.088.304.005.61.069.922.158.521.151.867.355 1.045.606.171.248.21.523.152.807-.082.236-.152.397-.313.499C.316-.117.15-.039 0 0" style="fill:#fff;fill-opacity:1;fill-rule:nonzero;stroke:none" transform="matrix(1.3909 0 0 -1.3909 72.04 24.852)"/><path d="M0 0a1.81 1.81 0 0 0 .955-.464c.262-.263.432-.623.502-1.115a2.38 2.38 0 0 0-.019-.987 2.178 2.178 0 0 0-.393-.751 2.563 2.563 0 0 0-.684-.485 2.48 2.48 0 0 0-.873-.262l-2.642-.45-1.035 7.324 2.539.42c.675.115 1.21.056 1.65-.148.451-.222.699-.654.796-1.318.058-.382.013-.73-.141-1.024A1.592 1.592 0 0 0 0 0m-.301 1.42a2.162 2.162 0 0 1-.15.509.903.903 0 0 1-.3.289c-.129.069-.263.088-.384.107-.16 0-.297-.019-.469-.038l-1.402-.241.305-2.141 1.464.243c.357.069.605.198.786.419.15.224.201.503.15.853m-.482-4.599c.172.032.332.071.502.134.14.053.267.149.362.268a.94.94 0 0 1 .23.408c.05.168.05.375.021.598-.021.251-.103.441-.166.591-.117.141-.211.263-.326.326a.82.82 0 0 1-.426.127 1.583 1.583 0 0 1-.504-.01l-1.496-.25.363-2.433z" style="fill:#fff;fill-opacity:1;fill-rule:nonzero;stroke:none" transform="matrix(1.3909 0 0 -1.3909 84.025 19.734)"/><path d="m0 0-.783 1.992-2.79-.173-.523-2.093-1.146-.064 1.172 4.317.898 3.235 1.477.091L1.164.081zm-2.459 6.317-.867-3.549 2.189.149-1.228 3.412z" style="fill:#fff;fill-opacity:1;fill-rule:nonzero;stroke:none" transform="matrix(1.3909 0 0 -1.3909 94.098 24.311)"/><path d="M0 0a6.37 6.37 0 0 1-.936.433 6.656 6.656 0 0 0-.981.472c-.37.189-.648.433-.835.713-.196.259-.293.649-.293 1.172.032.311.097.598.211.851.134.243.311.467.547.618.199.165.479.302.791.369.324.086.642.11 1.026.103a5.72 5.72 0 0 0 1.107-.139c.375-.09.688-.223 1-.421l-.399-.865c-.213.121-.455.24-.748.335-.3.097-.617.149-.974.168-.465.02-.808-.09-1.063-.241a.897.897 0 0 1-.402-.727c0-.243.071-.44.185-.598.127-.154.285-.287.472-.404.126-.056.248-.119.406-.19.142-.07.313-.141.48-.209.165-.071.318-.134.496-.224.139-.068.305-.138.452-.241A5.35 5.35 0 0 0 .975.676a.98.98 0 0 0 .35-.377c.103-.146.209-.299.241-.504.039-.196.09-.425.071-.707a1.74 1.74 0 0 0-.209-.859 1.526 1.526 0 0 0-.512-.623C.695-2.581.408-2.707.09-2.79a3.87 3.87 0 0 0-1.039-.102 4.133 4.133 0 0 0-1.172.173c-.381.097-.758.24-1.082.432l.42.891c.312-.173.605-.309.905-.394.279-.083.586-.127.929-.146.521 0 .898.075 1.139.263a.954.954 0 0 1 .371.729c0 .226-.039.409-.166.574C.313-.224.148-.107 0 0" style="fill:#fff;fill-opacity:1;fill-rule:nonzero;stroke:none" transform="matrix(1.3909 0 0 -1.3909 100.482 20.566)"/><path d="m0 0-.095-.91-4.33.46.694 7.368 4.21-.458-.102-.936-3.133.335-.21-2.162 3.051-.333L0 2.442l-3.023.331L-3.26.37Z" style="fill:#fff;fill-opacity:1;fill-rule:nonzero;stroke:none" transform="matrix(1.3909 0 0 -1.3909 110.225 24.112)"/><path d="M0 0c.332-.204.593-.464.772-.798.19-.33.241-.744.139-1.223-.063-.375-.178-.686-.344-.934a1.75 1.75 0 0 0-.578-.555 2.728 2.728 0 0 0-.804-.228c-.268-.015-.573 0-.885.07l-2.643.521 1.249 7.279 2.523-.508C.116 3.495.612 3.252.962 2.897c.343-.37.46-.854.343-1.518C1.225.98 1.09.667.854.438.649.202.352.056 0 0m-1.7-2.719c.173-.047.324-.054.505-.054a.76.76 0 0 1 .437.117.692.692 0 0 1 .323.292c.125.141.196.333.238.574.032.228.032.445 0 .613a.999.999 0 0 1-.199.43.757.757 0 0 1-.362.261c-.145.092-.318.133-.491.18l-1.465.291-.419-2.42zM.159 1.433c.031.216.031.401 0 .559a1.022 1.022 0 0 1-.17.365c-.109.095-.224.17-.353.221-.119.059-.278.11-.43.141l-1.404.287-.356-2.128 1.429-.299c.367-.078.642-.024.857.119.218.141.377.397.427.735" style="fill:#fff;fill-opacity:1;fill-rule:nonzero;stroke:none" transform="matrix(1.3909 0 0 -1.3909 117.693 21.158)"/><path d="m0 0 .025 2.16-2.634.987-1.243-1.707-1.096.406 4.599 6.12 1.408-.54.063-7.866Zm0 6.852-2.076-2.921L.025 3.16l.039 3.655Z" style="fill:#fff;fill-opacity:1;fill-rule:nonzero;stroke:none" transform="matrix(1.3909 0 0 -1.3909 125.763 29.132)"/><path d="m0 0-.37-.846-3.712 1.866 2.896 6.705.976-.484-2.522-5.864Z" style="fill:#fff;fill-opacity:1;fill-rule:nonzero;stroke:none" transform="matrix(1.3909 0 0 -1.3909 133.63 31.392)"/><path d="m0 0-.39-.836-3.68 1.919 2.974 6.674.981-.511-2.617-5.828Z" style="fill:#fff;fill-opacity:1;fill-rule:nonzero;stroke:none" transform="matrix(1.3909 0 0 -1.3909 139.946 34.454)"/><path d="M0 0c-.925.642-1.415 1.369-1.464 2.189-.083.817.19 1.753.8 2.804C.02 6.103.744 6.752 1.477 6.949c.783.197 1.586 0 2.426-.586a4.13 4.13 0 0 0 .936-.939c.275-.387.408-.783.454-1.209l-.892-.197c-.031.314-.14.591-.275.835-.151.262-.369.491-.681.707-.585.409-1.139.503-1.663.268C1.255 5.611.744 5.083.243 4.239c-.459-.722-.639-1.401-.611-1.972.017-.567.329-1.051.91-1.453a3.84 3.84 0 0 1 .988-.54c.328-.124.627-.196.903-.25L2.19-.893a4.77 4.77 0 0 0-1.076.282A4.94 4.94 0 0 0 0 0" style="fill:#fff;fill-opacity:1;fill-rule:nonzero;stroke:none" transform="matrix(1.3909 0 0 -1.3909 146.147 40.709)"/><path d="m0 0-.522-.739-3.235 2.726 4.204 5.84.855-.727L-2.376 2Z" style="fill:#fff;fill-opacity:1;fill-rule:nonzero;stroke:none" transform="matrix(1.3909 0 0 -1.3909 155.199 46.112)"/><path d="m0 0-2.859-3.344c-.658-.764-1.307-1.146-1.944-1.146-.633.017-1.283.331-1.898.973-.645.644-.968 1.306-.968 1.943 0 .65.336 1.377 1.024 2.185l2.803 3.274.797-.815-2.944-3.401c-.374-.452-.597-.885-.656-1.306-.056-.401.098-.802.497-1.192.452-.445.853-.625 1.254-.586.382.063.803.37 1.299.944L-.785.8z" style="fill:#fff;fill-opacity:1;fill-rule:nonzero;stroke:none" transform="matrix(1.3909 0 0 -1.3909 166.895 46.112)"/><path d="M0 0c.187-.355.261-.732.211-1.114-.024-.382-.229-.752-.543-1.097-.26-.26-.5-.438-.783-.54a1.817 1.817 0 0 0-.801-.071 2.48 2.48 0 0 0-.727.312 3.463 3.463 0 0 0-.701.613L-5.188.199l4.927 5.125 1.779-1.999c.451-.54.744-1.044.827-1.567.095-.498-.083-.975-.521-1.447-.275-.277-.57-.43-.869-.481A1.593 1.593 0 0 0 0 0m-2.839-1.134c.109-.121.253-.241.37-.343a.803.803 0 0 1 .413-.191.707.707 0 0 1 .457.033c.149.049.3.158.466.331.166.165.301.324.33.484.082.166.097.317.097.482a1.37 1.37 0 0 1-.165.44 1.792 1.792 0 0 1-.293.44l-1.045 1.185L-3.846.019ZM.912 1.094c.152.141.234.282.318.428.024.134.04.268.024.426a1.076 1.076 0 0 1-.139.397c-.09.126-.167.248-.279.369L-.166 3.848l-1.449-1.503 1.023-1.158C-.35.905-.088.759.165.739c.263-.007.519.095.747.355" style="fill:#fff;fill-opacity:1;fill-rule:nonzero;stroke:none" transform="matrix(1.3909 0 0 -1.3909 168.903 54.9)"/><path d="M0 0h-2.956v-12.818h9.102v2.495H0Z" style="fill:#fff;fill-opacity:1;fill-rule:nonzero;stroke:none" transform="matrix(1.3909 0 0 -1.3909 86.586 42.624)"/><path d="M0 0h2.396v-2.228c-.445-.18-1.316-.338-2.152-.338-2.642 0-3.535 1.342-3.535 4.101 0 2.619.84 4.159 3.51 4.159 1.489 0 2.324-.457 3.019-1.357l1.846 1.707C3.963 7.643 2.001 8.134.162 8.134c-4.134 0-6.338-2.267-6.338-6.58 0-4.305 1.953-6.618 6.311-6.618 2 0 3.943.499 5.011 1.255V2.4H0Z" style="fill:#fff;fill-opacity:1;fill-rule:nonzero;stroke:none" transform="matrix(1.3909 0 0 -1.3909 104.21 53.67)"/></svg>